<svg width="799" height="746" viewBox="0 0 799 746" className="fill-element" xmlns="http://www.w3.org/2000/svg">
<path d="M646.333 73.6667L407 12.6667C401.746 11.3677 396.254 11.3677 391 12.6667L151.667 73.6667C136.407 77.476 122.986 86.5576 113.775 99.3063C104.564 112.055 100.157 127.65 101.333 143.333L115.333 327C120.94 399.858 146.398 469.788 188.943 529.198C231.489 588.609 289.495 635.23 356.667 664L386 676.667C390.113 678.409 394.534 679.306 399 679.306C403.466 679.306 407.887 678.409 412 676.667L441.333 664C508.505 635.23 566.511 588.609 609.057 529.198C651.602 469.788 677.06 399.858 682.667 327L696.667 143.333C697.843 127.65 693.436 112.055 684.225 99.3063C675.014 86.5576 661.593 77.476 646.333 73.6667Z" fill="#222" />
<path d="M365.667 412.667C361.28 412.692 356.931 411.851 352.87 410.192C348.809 408.534 345.115 406.089 342 403L275.333 336.333C269.057 330.057 265.53 321.543 265.53 312.667C265.53 303.79 269.057 295.277 275.333 289C281.61 282.723 290.123 279.197 299 279.197C307.877 279.197 316.39 282.723 322.667 289L365.667 332.333L475.333 222.333C481.61 216.057 490.123 212.53 499 212.53C507.877 212.53 516.39 216.057 522.667 222.333C528.943 228.61 532.47 237.123 532.47 246C532.47 254.877 528.943 263.39 522.667 269.667L389.333 403C386.219 406.089 382.525 408.534 378.464 410.192C374.402 411.851 370.054 412.692 365.667 412.667Z" fill="#8B5CF6"/>
</svg>
